<svg id="Layer_1" data-name="Layer 1" xmlns="http://www.w3.org/2000/svg" viewBox="0 0 172.51 60"><defs><style>.cls-1{fill:#fff;}</style></defs><circle cx="36.35" cy="30" r="17.6"/><circle class="cls-1" cx="36.35" cy="30" r="5.86"/><path d="M94.23,26.7h-6.8c-.36-2.05-1.64-3.45-4.4-3.45-2.32,0-3.88,1-3.88,2.72,0,1.49,1.08,2.13,3.12,2.57l3.8.88c5,1.08,8.2,3.08,8.2,7.76C94.27,42.62,89.79,46,83,46c-6.13,0-11.65-2.88-12.29-9.6h6.76c.44,2.4,2.53,3.84,5.73,3.84,2.52,0,3.84-.92,3.84-2.4,0-.92-.56-1.88-2.88-2.32l-4.48-1c-5.37-1.16-7.89-3.68-7.89-8,0-5.45,4.4-8.89,10.81-8.89C87,17.65,93.55,19.37,94.23,26.7Z"/><path d="M118.11,35.74a10.07,10.07,0,0,1-10.48,10.32c-6.16,0-10.56-4.4-10.56-10.32s4.4-10.13,10.56-10.13S118.11,29.9,118.11,35.74Zm-6.12,0a4.38,4.38,0,1,0-8.76,0,4.39,4.39,0,1,0,8.76,0Z"/><path d="M128.07,45.46h-6.52V17.05h6.52Z"/><path d="M152.52,35.74A10.07,10.07,0,0,1,142,46.06c-6.16,0-10.57-4.4-10.57-10.32S135.88,25.61,142,25.61,152.52,29.9,152.52,35.74Zm-6.12,0a4.38,4.38,0,1,0-8.76,0,4.39,4.39,0,1,0,8.76,0Z"/><path d="M154.44,42.66a3.53,3.53,0,0,1,3.6-3.48,3.5,3.5,0,1,1,0,7A3.54,3.54,0,0,1,154.44,42.66Z"/><circle cx="36.35" cy="30" r="1.56"/></svg>