<svg id="Layer_1" data-name="Layer 1" xmlns="http://www.w3.org/2000/svg" viewBox="0 0 172.51 60"><defs><style>.cls-1{fill:#fff;}</style></defs><path class="cls-1" d="M36,12.18a17.61,17.61,0,1,0,17.6,17.6A17.61,17.61,0,0,0,36,12.18Zm0,23.46a5.86,5.86,0,1,1,5.86-5.86A5.86,5.86,0,0,1,36,35.64Z"/><path class="cls-1" d="M93.92,26.48h-6.8c-.36-2-1.64-3.44-4.4-3.44-2.32,0-3.88,1-3.88,2.72,0,1.48,1.08,2.12,3.12,2.56l3.8.88c5,1.08,8.2,3.08,8.2,7.76,0,5.44-4.48,8.84-11.28,8.84-6.13,0-11.65-2.88-12.29-9.6h6.77c.43,2.4,2.52,3.84,5.72,3.84,2.52,0,3.84-.92,3.84-2.4,0-.92-.56-1.88-2.88-2.32l-4.48-1c-5.37-1.16-7.89-3.68-7.89-8,0-5.44,4.4-8.88,10.81-8.88C86.68,17.44,93.24,19.16,93.92,26.48Z"/><path class="cls-1" d="M117.8,35.52a10.07,10.07,0,0,1-10.48,10.32c-6.16,0-10.56-4.4-10.56-10.32s4.4-10.12,10.56-10.12S117.8,29.68,117.8,35.52Zm-6.12,0a4.38,4.38,0,1,0-8.76,0,4.39,4.39,0,1,0,8.76,0Z"/><path class="cls-1" d="M127.76,45.24h-6.52V16.84h6.52Z"/><path class="cls-1" d="M152.21,35.52a10.07,10.07,0,0,1-10.48,10.32c-6.16,0-10.57-4.4-10.57-10.32s4.41-10.12,10.57-10.12S152.21,29.68,152.21,35.52Zm-6.12,0a4.38,4.38,0,1,0-8.76,0,4.39,4.39,0,1,0,8.76,0Z"/><path class="cls-1" d="M154.13,42.44a3.53,3.53,0,0,1,3.6-3.48,3.5,3.5,0,1,1,0,7A3.54,3.54,0,0,1,154.13,42.44Z"/><circle class="cls-1" cx="36.04" cy="29.78" r="1.56"/></svg>